<svg width="115" height="112" viewBox="0 0 115 112" fill="none" xmlns="http://www.w3.org/2000/svg">
<mask id="path-1-inside-1_2494_19236" fill="white">
<path d="M31.9706 31.4503C35.2767 27.9777 39.2101 25.1661 43.5462 23.1759C47.8823 21.1856 52.5361 20.0557 57.242 19.8507C61.9478 19.6457 66.6136 20.3696 70.9729 21.9811C75.3321 23.5926 79.2995 26.0601 82.6485 29.2427C85.9974 32.4253 88.6624 36.2607 90.4913 40.5299C92.3201 44.7991 93.277 49.4185 93.3073 54.1244C93.3376 58.8303 92.4407 63.5304 90.6678 67.9566C88.8949 72.3827 86.2808 76.448 82.9747 79.9205L57.4726 55.6854L31.9706 31.4503Z"/>
</mask>
<path d="M31.9706 31.4503C35.2767 27.9777 39.2101 25.1661 43.5462 23.1759C47.8823 21.1856 52.5361 20.0557 57.242 19.8507C61.9478 19.6457 66.6136 20.3696 70.9729 21.9811C75.3321 23.5926 79.2995 26.0601 82.6485 29.2427C85.9974 32.4253 88.6624 36.2607 90.4913 40.5299C92.3201 44.7991 93.277 49.4185 93.3073 54.1244C93.3376 58.8303 92.4407 63.5304 90.6678 67.9566C88.8949 72.3827 86.2808 76.448 82.9747 79.9205L57.4726 55.6854L31.9706 31.4503Z" fill="#F2DBD3" stroke="#F2DBD3" stroke-width="2" mask="url(#path-1-inside-1_2494_19236)"/>
<mask id="path-2-inside-2_2494_19236" fill="white">
<path d="M41.485 87.8601C40.52 88.6991 39.4057 89.3463 38.2057 89.7648C37.0058 90.1833 35.7436 90.3648 34.4913 90.299C33.239 90.2333 32.0212 89.9215 30.9073 89.3816C29.7934 88.8416 28.8052 88.084 27.9992 87.152C27.1932 86.22 26.5852 85.1319 26.2099 83.9498C25.8346 82.7677 25.6993 81.5147 25.8117 80.2624C25.9242 79.0102 26.2822 77.7831 26.8653 76.6513C27.4484 75.5195 28.2452 74.5052 29.2102 73.6662L35.3476 80.7631L41.485 87.8601Z"/>
</mask>
<path d="M41.485 87.8601C40.52 88.6991 39.4057 89.3463 38.2057 89.7648C37.0058 90.1833 35.7436 90.3648 34.4913 90.299C33.239 90.2333 32.0212 89.9215 30.9073 89.3816C29.7934 88.8416 28.8052 88.084 27.9992 87.152C27.1932 86.22 26.5852 85.1319 26.2099 83.9498C25.8346 82.7677 25.6993 81.5147 25.8117 80.2624C25.9242 79.0102 26.2822 77.7831 26.8653 76.6513C27.4484 75.5195 28.2452 74.5052 29.2102 73.6662L35.3476 80.7631L41.485 87.8601Z" fill="#F2DBD3" stroke="#F2DBD3" stroke-width="2" mask="url(#path-2-inside-2_2494_19236)"/>
</svg>
